<?xml version="1.0" encoding="UTF-8" standalone="no"?>
<!-- Created with Inkscape (http://www.inkscape.org/) -->

<svg
   xmlns:dc="http://purl.org/dc/elements/1.1/"
   xmlns:cc="http://creativecommons.org/ns#"
   xmlns:rdf="http://www.w3.org/1999/02/22-rdf-syntax-ns#"
   xmlns:svg="http://www.w3.org/2000/svg"
   xmlns="http://www.w3.org/2000/svg"
   xmlns:sodipodi="http://sodipodi.sourceforge.net/DTD/sodipodi-0.dtd"
   xmlns:inkscape="http://www.inkscape.org/namespaces/inkscape"
   width="210mm"
   height="297mm"
   viewBox="0 0 210 297"
   version="1.1"
   id="svg8"
   inkscape:version="0.92.4 (5da689c313, 2019-01-14)"
   sodipodi:docname="nosql-nemo.svg">
  <defs
     id="defs2" />
  <sodipodi:namedview
     id="base"
     pagecolor="#ffffff"
     bordercolor="#666666"
     borderopacity="1.0"
     inkscape:pageopacity="0.0"
     inkscape:pageshadow="2"
     inkscape:zoom="1.905927"
     inkscape:cx="397.50262"
     inkscape:cy="579.11924"
     inkscape:document-units="mm"
     inkscape:current-layer="layer1"
     showgrid="false"
     inkscape:window-width="1920"
     inkscape:window-height="1001"
     inkscape:window-x="-9"
     inkscape:window-y="-9"
     inkscape:window-maximized="1" />
  <metadata
     id="metadata5">
    <rdf:RDF>
      <cc:Work
         rdf:about="">
        <dc:format>image/svg+xml</dc:format>
        <dc:type
           rdf:resource="http://purl.org/dc/dcmitype/StillImage" />
        <dc:title></dc:title>
      </cc:Work>
    </rdf:RDF>
  </metadata>
  <g
     inkscape:label="Calque 1"
     inkscape:groupmode="layer"
     id="layer1">
    <circle
       r="0"
       cy="151.19568"
       cx="102.33704"
       id="ellipse830"
       style="opacity:1;vector-effect:none;fill:#d0af1f;fill-opacity:1;stroke:none;stroke-width:0.80199999;stroke-linecap:round;stroke-linejoin:round;stroke-miterlimit:4;stroke-dasharray:none;stroke-dashoffset:0;stroke-opacity:1" />
    <path
       style="opacity:1;vector-effect:none;fill:#d0af1f;fill-opacity:1;stroke:none;stroke-width:3.16524148;stroke-linecap:round;stroke-linejoin:round;stroke-miterlimit:4;stroke-dasharray:none;stroke-dashoffset:0;stroke-opacity:1"
       d="m 364.37109,503.58203 a 58.214279,59.64285 0 0 0 -5.23828,2.00977 58.214278,59.642849 0 0 1 5.23828,-2.00977 z"
       transform="scale(0.26458333)"
       id="path930"
       inkscape:connector-curvature="0" />
    <path
       style="opacity:1;vector-effect:none;fill:#d0af1f;fill-opacity:1;stroke:none;stroke-width:3.16524148;stroke-linecap:round;stroke-linejoin:round;stroke-miterlimit:4;stroke-dasharray:none;stroke-dashoffset:0;stroke-opacity:1"
       d="m 402.41406,504.4707 a 58.214278,59.642849 0 0 1 4.84375,2.10742 58.214279,59.64285 0 0 0 -4.84375,-2.10742 z"
       transform="scale(0.26458333)"
       id="path928"
       inkscape:connector-curvature="0" />
    <path
       style="opacity:1;vector-effect:none;fill:#d0af1f;fill-opacity:1;stroke:none;stroke-width:3.16524148;stroke-linecap:round;stroke-linejoin:round;stroke-miterlimit:4;stroke-dasharray:none;stroke-dashoffset:0;stroke-opacity:1"
       d="m 379.99219,504.66211 c -2.03767,0.014 -5.61944,0.12406 -10.09961,0.45312 l 6.17773,25.46875 a 4.6672027,4.6672027 0 0 0 -0.22851,-0.39648 4.6672025,4.6672025 0 0 1 0.45898,0.93359 29.107139,29.821425 0 0 1 1.73828,-0.28125 29.107139,29.821425 0 0 1 1.95313,-0.27148 z m 4.30078,0 v 25.9043 a 29.107139,29.821425 0 0 1 26.39453,23.93164 29.107139,29.821425 0 0 1 0.42383,2.92968 29.107139,29.821425 0 0 1 0.13867,2.875 29.107139,29.821425 0 0 1 -0.13867,2.66211 29.107139,29.821425 0 0 1 -0.13477,1.13477 29.107139,29.821425 0 0 1 -0.24609,1.70703 29.107139,29.821425 0 0 1 -0.004,0.0293 l 28.25,6.93164 a 58.214271,59.642842 0 0 0 1.38086,-12.46485 58.214271,59.642842 0 0 0 -15.89258,-40.89843 c -2.09759,-0.48776 -3.87389,-0.74844 -6.71679,-1.60352 a 1.0001,1.0001 0 0 1 -0.29297,-1.77148 c 0.83818,-0.59615 1.39239,-1.16147 1.75586,-1.68164 a 58.214271,59.642842 0 0 0 -11.94727,-7.76758 c -0.002,-3.5e-4 -0.004,-0.002 -0.006,-0.002 -0.99671,-0.18148 -2.02691,-0.35002 -3.125,-0.49218 -9.28686,-1.2023 -16.48499,-1.40085 -19.83984,-1.42383 z m -14.41406,0.45508 c -1.559,0.11463 -3.14332,0.23687 -4.9336,0.41992 1.7905,-0.18307 3.37499,-0.3054 4.9336,-0.41992 z m -4.9336,0.41992 c -1.53177,0.15662 -3.11435,0.33151 -4.79297,0.54883 -1.13026,0.14633 -2.18809,0.32182 -3.21093,0.50976 a 58.214272,59.642843 0 0 0 -2.15821,1.20313 l 12.74219,23.33789 a 4.6672025,4.6672025 0 0 1 3.99414,-3.08203 4.6672027,4.6672027 0 0 0 -0.0273,0.002 z m -10.16211,2.26172 a 58.214272,59.642843 0 0 0 -4.27734,2.5664 58.214273,59.642844 0 0 1 4.27734,-2.5664 z m -4.27929,2.56836 a 58.214272,59.642843 0 0 0 -5.41993,3.99804 c 0.36404,0.51529 0.91758,1.0748 1.7461,1.66407 a 1.0001,1.0001 0 0 1 -0.29297,1.77148 c -0.99058,0.29794 -1.82665,0.51072 -2.61719,0.69922 l 13.83594,14.50977 a 9.0427054,9.0427054 0 0 1 0.45117,-0.0156 9.0427054,9.0427054 0 0 1 6.88672,3.18359 29.107139,29.821425 0 0 1 2.16211,-1.4375 29.107139,29.821425 0 0 0 -1.43359,0.90821 z m -11.54688,10.1289 a 58.214272,59.642843 0 0 0 -6.17578,8.29883 l 16.88867,10.29492 a 9.0427054,9.0427054 0 0 1 3.75781,-4.72265 z m -6.17578,8.29883 a 58.214272,59.642843 0 0 0 -1.91406,3.51172 58.214273,59.642844 0 0 1 1.91406,-3.51172 z m 40.95313,-0.38867 a 4.6672025,4.6672025 0 0 1 1.52929,1.05078 4.6672027,4.6672027 0 0 0 -1.52929,-1.05078 z m 1.52929,1.05078 a 4.6672025,4.6672025 0 0 1 0.57813,0.72852 4.6672027,4.6672027 0 0 0 -0.57813,-0.72852 z m -44.85742,3.69727 a 58.214272,59.642843 0 0 0 -3.7832,9.5625 l 27.91797,8.19922 a 29.107139,29.821425 0 0 0 -0.084,0.30664 29.107139,29.821425 0 0 1 0.25781,-0.78907 29.107139,29.821425 0 0 1 0.0176,-0.0586 9.0427054,9.0427054 0 0 1 -5.43554,-6.84375 z m -3.7832,9.5625 a 58.214272,59.642843 0 0 0 -1.2461,4.79297 58.214273,59.642844 0 0 1 1.2461,-4.79297 z m -1.2461,4.79297 a 58.214272,59.642843 0 0 0 -1.44922,12.79296 58.214272,59.642843 0 0 0 15.70313,40.67579 c 10.69878,4.51944 21.89606,9.2417 33.21875,14.14843 l 3.08203,-4.39062 -3.15625,1.8125 0.37891,-2.7168 6.83789,-11.18164 v -8.61328 a 29.107139,29.821425 0 0 1 -26.39453,-23.92969 29.107139,29.821425 0 0 1 -0.002,-0.0176 29.107139,29.821425 0 0 1 -0.41797,-2.89257 29.107139,29.821425 0 0 1 -0.14257,-2.89454 29.107139,29.821425 0 0 1 0.0918,-1.74023 29.107139,29.821425 0 0 1 0.13672,-1.71875 29.107139,29.821425 0 0 1 0.14844,-0.98242 29.107139,29.821425 0 0 1 0.37109,-2.06055 29.107139,29.821425 0 0 1 0.0312,-0.17187 29.107139,29.821425 0 0 0 -0.20507,0.80859 z m 28.83789,4.58203 a 29.107139,29.821425 0 0 0 -0.14843,0.54101 29.107139,29.821425 0 0 1 0.0898,-0.30078 29.107139,29.821425 0 0 1 0.0586,-0.24023 z m 55.64063,17.28515 a 29.107139,29.821425 0 0 1 -0.16797,0.45117 29.107139,29.821425 0 0 1 -0.85742,2.29297 29.107139,29.821425 0 0 1 -0.0899,0.20313 29.107139,29.821425 0 0 1 -0.34179,0.78516 l 25.61328,14.07226 a 58.214271,59.642842 0 0 0 3.74609,-9.60937 z m -3.17578,6.95703 a 29.107139,29.821425 0 0 1 -2.00781,2.82422 29.107139,29.821425 0 0 1 -0.36329,0.45899 l 21.1836,20.30273 a 58.214271,59.642842 0 0 0 6.16406,-8.35937 z m -4.90039,5.9336 a 29.107139,29.821425 0 0 1 -0.0117,0.01 29.107139,29.821425 0 0 1 -2.22656,1.88868 29.107139,29.821425 0 0 1 -0.004,0.002 29.107139,29.821425 0 0 1 -0.006,0.004 29.107139,29.821425 0 0 1 -0.9082,0.70703 l 13.07812,21.58203 c 3.1535,-1.33677 6.27779,-2.65862 9.36524,-3.96289 z m -6.29297,4.52344 a 29.107139,29.821425 0 0 1 -0.4336,0.19921 29.107139,29.821425 0 0 1 -3.35742,1.44532 l 6.87305,23.63867 c 2.89945,-1.2441 5.82156,-2.50775 8.6875,-3.72656 z m -7.32422,2.67578 a 29.107139,29.821425 0 0 1 -3.40234,0.52343 29.107139,29.821425 0 0 1 -0.4668,0.0469 v 8.60937 l 6.83984,11.18555 0.28907,2.08789 0.33789,2.4375 -2.53125,-0.38476 1.21679,1.58593 c 1.23184,-0.53468 2.43736,-1.04193 3.66602,-1.57226 z m -40.01172,19.1875 a 58.214275,59.642846 0 0 0 25.49023,10.54297 l 0.57422,-0.73047 c -0.36717,-0.13082 -0.73426,-0.26179 -1.09961,-0.39258 l -1.16601,0.43359 0.11328,-0.81054 c -8.45589,-3.04092 -16.44423,-6.07036 -23.91211,-9.04297 z m 67.91602,0.0254 c -0.79928,0.31807 -1.62832,0.63965 -2.43946,0.95898 l 0.32227,0.5293 a 58.214273,59.642844 0 0 0 2.11719,-1.48828 z m -2.13282,1.5 a 58.214274,59.642845 0 0 1 -3.87109,2.32422 58.214273,59.642844 0 0 0 3.87109,-2.32422 z m -4.97851,1.27929 c -3.09573,1.19411 -6.26586,2.39488 -9.51758,3.59961 l 0.55078,1.89453 a 58.214273,59.642844 0 0 0 9.66992,-4.20703 z m -14.17188,5.30469 c -0.8905,0.32365 -1.76484,0.64677 -2.66601,0.97071 l 0.13281,0.17382 0.14844,1.07032 a 58.214273,59.642844 0 0 0 2.76367,-0.66016 z"
       transform="scale(0.26458333)"
       id="path971"
       inkscape:connector-curvature="0" />
    <path
       style="opacity:1;vector-effect:none;fill:#d0af1f;fill-opacity:1;stroke:none;stroke-width:3.16524148;stroke-linecap:round;stroke-linejoin:round;stroke-miterlimit:4;stroke-dasharray:none;stroke-dashoffset:0;stroke-opacity:1"
       d="m 382.12109,619.25975 a 1.0001,1.0001 0 0 1 0.0215,0.0254 1.0001,1.0001 0 0 1 0.0254,-0.0254 z"
       transform="scale(0.26458333)"
       id="path926"
       inkscape:connector-curvature="0" />
    <path
       style="opacity:1;vector-effect:none;fill:#d0af1f;fill-opacity:1;stroke:none;stroke-width:3.16524148;stroke-linecap:round;stroke-linejoin:round;stroke-miterlimit:4;stroke-dasharray:none;stroke-dashoffset:0;stroke-opacity:1"
       d="m 419.21094,514.34766 a 58.214278,59.642849 0 0 1 1.41211,1.27148 58.214279,59.64285 0 0 0 -1.41211,-1.27148 z"
       transform="scale(0.26458333)"
       id="path924"
       inkscape:connector-curvature="0" />
    <path
       style="opacity:1;vector-effect:none;fill:#d0af1f;fill-opacity:1;stroke:none;stroke-width:3.16524148;stroke-linecap:round;stroke-linejoin:round;stroke-miterlimit:4;stroke-dasharray:none;stroke-dashoffset:0;stroke-opacity:1"
       d="m 424.46484,519.4043 a 58.214279,59.64285 0 0 0 -2.73437,-2.72852 58.214278,59.642849 0 0 1 2.73437,2.72852 z"
       transform="scale(0.26458333)"
       id="path922"
       inkscape:connector-curvature="0" />
    <path
       style="opacity:1;vector-effect:none;fill:#d0af1f;fill-opacity:1;stroke:none;stroke-width:3.16524148;stroke-linecap:round;stroke-linejoin:round;stroke-miterlimit:4;stroke-dasharray:none;stroke-dashoffset:0;stroke-opacity:1"
       d="m 424.5957,601.00391 a 58.214278,59.642849 0 0 1 -3.97851,3.95898 58.214279,59.64285 0 0 0 3.97851,-3.95898 z"
       transform="scale(0.26458333)"
       id="path918"
       inkscape:connector-curvature="0" />
    <path
       style="opacity:1;vector-effect:none;fill:#d0af1f;fill-opacity:1;stroke:none;stroke-width:3.16524148;stroke-linecap:round;stroke-linejoin:round;stroke-miterlimit:4;stroke-dasharray:none;stroke-dashoffset:0;stroke-opacity:1"
       d="m 420.61719,604.96289 a 58.214278,59.642849 0 0 1 -4.55078,3.7168 58.214279,59.64285 0 0 0 4.55078,-3.7168 z"
       transform="scale(0.26458333)"
       id="path916"
       inkscape:connector-curvature="0" />
    <path
       style="opacity:1;vector-effect:none;fill:#d0af1f;fill-opacity:1;stroke:none;stroke-width:3.16524148;stroke-linecap:round;stroke-linejoin:round;stroke-miterlimit:4;stroke-dasharray:none;stroke-dashoffset:0;stroke-opacity:1"
       d="m 386.38477,619.7793 a 58.214278,59.642849 0 0 1 -4.24219,0.16601 58.214279,59.64285 0 0 0 4.24219,-0.16601 z"
       transform="scale(0.26458333)"
       id="path912"
       inkscape:connector-curvature="0" />
    <path
       style="opacity:1;vector-effect:none;fill:#d0af1f;fill-opacity:1;stroke:none;stroke-width:3.16524148;stroke-linecap:round;stroke-linejoin:round;stroke-miterlimit:4;stroke-dasharray:none;stroke-dashoffset:0;stroke-opacity:1"
       d="m 339.63086,600.97852 a 58.214279,59.64285 0 0 0 8.47656,7.64257 58.214278,59.642849 0 0 1 -8.47656,-7.64257 z"
       transform="scale(0.26458333)"
       id="path910"
       inkscape:connector-curvature="0" />
    <path
       style="opacity:1;vector-effect:none;fill:#d0af1f;fill-opacity:1;stroke:none;stroke-width:3.16524148;stroke-linecap:round;stroke-linejoin:round;stroke-miterlimit:4;stroke-dasharray:none;stroke-dashoffset:0;stroke-opacity:1"
       d="m 339.88086,519.39062 a 58.214278,59.642849 0 0 1 2.625,-2.70312 58.214279,59.64285 0 0 0 -2.625,2.70312 z"
       transform="scale(0.26458333)"
       id="path908"
       inkscape:connector-curvature="0" />
    <path
       style="opacity:1;fill:#d0af1f;fill-opacity:1;stroke:none;stroke-width:0.62314308px;stroke-linecap:butt;stroke-linejoin:miter;stroke-opacity:1"
       d="m 382.14258,403.56641 c -1.83791,15.19451 -5.95368,22.22433 -8.89453,23.76757 0,0 4.25574,-2.81163 6.17773,-0.69921 0.66342,0.7291 -0.11719,2.41406 -0.11719,2.41406 v 2.92773 l 0.9961,0.43164 v 98.14063 c 0.61177,-0.0426 1.22471,-0.0654 1.83789,-0.0684 0.61346,0.0121 1.2264,0.044 1.83789,0.0957 V 432.4082 l 0.99609,-0.43164 v -2.92773 c 0,0 -0.78068,-1.68496 -0.11718,-2.41406 1.92195,-2.11242 6.17773,0.69921 6.17773,0.69921 -3.56821,-2.44719 -7.05666,-8.57306 -8.89453,-23.76757 z m -1.83789,186.46289 v 8.70703 l -6.85157,11.20117 -0.27929,2.02344 3.82226,-2.19727 -3.85156,5.48828 c 2.81128,1.2184 5.63077,2.44776 8.45899,3.69336 h 1.60937 v 0.60547 l 0.2793,1.04297 9.58203,5.5332 -0.2793,-2.02539 -2.97851,-4.83789 2.41797,0.79102 -0.28126,-2.02344 -3.44531,-4.48633 2.88672,0.43946 -0.28125,-2.02344 -0.2793,-2.02344 -6.85351,-11.20508 v -8.67578 c -0.61179,0.042 -1.22473,0.0641 -1.83789,0.0664 -0.61344,-0.0114 -1.22638,-0.0426 -1.83789,-0.0937 z m -7.94141,27.78125 -0.0312,0.2207 0.31836,-0.11914 c -0.0943,-0.0339 -0.19296,-0.0677 -0.28711,-0.10156 z m 2.16211,0.76562 -2.75391,3.50195 -0.27929,2.02344 -0.28125,2.02539 9.36718,-5.41015 c -2.06152,-0.71388 -4.04791,-1.42685 -6.05273,-2.14063 z"
       transform="scale(0.26458333)"
       id="path852"
       inkscape:connector-curvature="0"
       inkscape:label="Arrow"
       sodipodi:nodetypes="cccccccccccccccccccccccccccccccccccccccccccccccccc" />
    <path
       style="opacity:1;vector-effect:none;fill:#5a4c0d;fill-opacity:1;stroke:none;stroke-width:1.58262074;stroke-linecap:round;stroke-linejoin:round;stroke-miterlimit:4;stroke-dasharray:none;stroke-dashoffset:0;stroke-opacity:1"
       d="m 369.89258,505.11523 c -1.5628,0.11479 -3.15179,0.2383 -4.94727,0.42188 l 6.54688,22.51953 a 4.6672028,4.6672028 0 0 1 0.42578,-0.0215 4.6672028,4.6672028 0 0 1 4.15234,2.54882 z m -15.10938,2.6836 a 58.214274,59.642845 0 0 0 -4.27929,2.56836 l 15.31836,25.28125 a 29.107139,29.821425 0 0 1 1.43359,-0.90821 29.107139,29.821425 0 0 0 -2.16211,1.4375 9.0427057,9.0427057 0 0 1 2.15625,5.85938 9.0427057,9.0427057 0 0 1 -9.04297,9.04101 9.0427057,9.0427057 0 0 1 -3.47461,-0.70312 29.107139,29.821425 0 0 0 -0.66601,2.25781 29.107139,29.821425 0 0 1 0.47461,-1.71679 l -27.91797,-8.19922 a 58.214274,59.642845 0 0 0 -1.2461,4.79297 l 28.23243,6.92773 a 29.107139,29.821425 0 0 1 0.20507,-0.80859 29.107139,29.821425 0 0 0 -0.77929,6.67382 29.107139,29.821425 0 0 0 29.10742,29.82032 29.107139,29.821425 0 0 0 29.10742,-29.82032 29.107139,29.821425 0 0 0 -29.10742,-29.82226 29.107139,29.821425 0 0 0 -5.8418,0.64062 4.6672028,4.6672028 0 0 1 0.2832,1.58008 4.6672028,4.6672028 0 0 1 -4.66601,4.66797 4.6672028,4.6672028 0 0 1 -4.30274,-2.85547 4.6672028,4.6672028 0 0 1 -0.004,-0.008 4.6672028,4.6672028 0 0 1 -0.36133,-1.80469 4.6672028,4.6672028 0 0 1 0.27539,-1.56445 z M 343.91992,518.5 c -1.45592,0.34715 -2.69712,0.58062 -4.03906,0.89062 a 58.214274,59.642845 0 0 0 -0.92383,1.10547 l 14.47461,13.875 a 9.0427057,9.0427057 0 0 1 4.32813,-1.35547 z m -11.13867,10.29492 a 58.214274,59.642845 0 0 0 -2.375,4.35938 l 18.89453,10.3789 a 9.0427057,9.0427057 0 0 1 -0.13476,-1.49609 9.0427057,9.0427057 0 0 1 0.5039,-2.94727 z"
       id="ellipse860"
       inkscape:connector-curvature="0"
       transform="scale(0.26458333)"
       inkscape:label="Eye shadows" />
    <path
       style="opacity:1;fill:#d0af1f;fill-opacity:1;stroke:none;stroke-width:1.99999988;stroke-linecap:round;stroke-linejoin:round;stroke-miterlimit:4;stroke-dasharray:none;stroke-opacity:1"
       d="m 347.23828,479.44141 c -3.55453,1.77736 -6.1791,5.08934 -10.27539,10.18554 -4.09625,5.09617 -9.66421,11.97652 -19.10547,20.89258 -9.80628,9.26079 -27.02254,16.36588 -42.19726,28.74609 -15.17478,12.38026 -24.73662,27.2143 -29.94727,20.39649 -9.63099,7.90726 -19.49606,3.9542 -27.85547,-0.57031 5.90737,6.78387 13.61723,17.30859 23.57031,18.57031 9.95305,1.26172 6.93667,-4.23464 17.85743,-6.42773 10.92074,-2.19311 49.2575,23.54162 122.10937,48.71093 -60.93256,-26.84696 -122.10938,-48.71093 -117.72656,-61.01953 5.95328,-16.71904 47.72013,-28.74635 65.58203,-36.77539 9.75005,-4.3827 11.12026,-3.53816 17,-5.30664 -6.74721,-4.7989 -0.49579,-9.90268 13.77344,-11.75 9.33351,-1.20835 16.58338,-1.40838 19.96875,-1.43164 V 489.2207 c -3.66275,-0.85801 -11.70373,-2.09202 -21.33399,0.54102 -7.60286,1.67629 -12.13958,-2.51079 -11.41992,-10.32031 z m 69.8086,0 c 0.71964,7.80952 -3.81707,11.9966 -11.41993,10.32031 -9.63025,-2.63312 -17.67125,-1.39906 -21.33398,-0.54102 v 14.44141 c 3.38536,0.0233 10.63523,0.22329 19.96875,1.43164 14.26926,1.84732 20.52065,6.9511 13.77344,11.75 5.87973,1.76848 7.24995,0.92394 17,5.30664 17.86193,8.02904 59.6287,20.05635 65.58203,36.77539 4.18634,11.75692 -51.44681,32.24294 -109.54297,57.45117 l 0.41016,0.53321 C 458.75815,592.75263 494.51802,569.12938 505,571.23438 c 10.92079,2.19309 7.90438,7.68945 17.85742,6.42773 9.95309,-1.26172 17.66295,-11.78644 23.57031,-18.57031 -8.3594,4.52451 -18.22447,8.47757 -27.85546,0.57031 -5.21065,6.81781 -14.7725,-8.01623 -29.94727,-20.39649 -15.17473,-12.38021 -32.39098,-19.4853 -42.19727,-28.74609 -9.44126,-8.91606 -15.00921,-15.79641 -19.10546,-20.89258 -4.09629,-5.0962 -6.72087,-8.40818 -10.27539,-10.18554 z"
       transform="scale(0.26458333)"
       id="path965"
       inkscape:connector-curvature="0"
       inkscape:label="Bow" />
    <path
       style="opacity:1;vector-effect:none;fill:#f3e7b0;fill-opacity:1;stroke:none;stroke-width:1.99999988;stroke-linecap:round;stroke-linejoin:round;stroke-miterlimit:4;stroke-dasharray:none;stroke-dashoffset:0;stroke-opacity:1"
       d="m 410.72461,565.83594 a 29.107139,29.821425 0 0 1 -0.86914,3.54101 l 27.90234,8.19532 a 58.214275,59.642846 0 0 0 1.21875,-4.80469 z m -2.33594,7.26758 a 29.107139,29.821425 0 0 1 -1.73437,3.21484 l 25.00195,15.24219 a 58.214275,59.642846 0 0 0 2.35547,-4.37891 z m -4.08008,6.51367 a 29.107139,29.821425 0 0 1 -2.52929,2.65039 l 19.28711,20.23047 c 1.16359,-0.49156 2.37679,-1.0073 3.52929,-1.49414 a 58.214275,59.642846 0 0 0 0.89649,-1.08399 z m -5.70117,5.23437 a 29.107139,29.821425 0 0 1 -3.12109,1.93946 l 11.76953,21.55664 c 1.50429,-0.63974 2.95294,-1.2541 4.44531,-1.88672 z m -6.91406,3.58008 a 29.107139,29.821425 0 0 1 -3.53711,1.00781 l 5.95508,24.54688 c 1.49383,-0.6448 2.96947,-1.27383 4.45703,-1.91211 z m 21.93359,21.20703 c -1.53812,0.60554 -3.09179,1.21083 -4.67187,1.82031 l 0.70312,1.28711 a 58.214276,59.642847 0 0 0 4.29102,-2.57617 z m -14.18945,5.41992 c -1.53172,0.56749 -3.08906,1.13621 -4.6543,1.70508 l 0.37891,1.55469 a 58.214276,59.642847 0 0 0 4.82617,-1.36524 z"
       id="path1048"
       inkscape:connector-curvature="0"
       transform="scale(0.26458333)"
       inkscape:label="Eye highlight" />
  </g>
</svg>
