<?xml version="1.0" encoding="UTF-8" standalone="no"?>
<!-- Created with Inkscape (http://www.inkscape.org/) -->

<svg
   xmlns:dc="http://purl.org/dc/elements/1.1/"
   xmlns:cc="http://creativecommons.org/ns#"
   xmlns:rdf="http://www.w3.org/1999/02/22-rdf-syntax-ns#"
   xmlns:svg="http://www.w3.org/2000/svg"
   xmlns="http://www.w3.org/2000/svg"
   xmlns:xlink="http://www.w3.org/1999/xlink"
   xmlns:sodipodi="http://sodipodi.sourceforge.net/DTD/sodipodi-0.dtd"
   xmlns:inkscape="http://www.inkscape.org/namespaces/inkscape"
   width="206.19977mm"
   height="97.834755mm"
   viewBox="0 0 206.19977 97.834755"
   version="1.1"
   id="svg8"
   inkscape:version="0.92.4 (5da689c313, 2019-01-14)"
   sodipodi:docname="Crash.svg">
  <defs
     id="defs2">
    <linearGradient
       inkscape:collect="always"
       id="linearGradient883">
      <stop
         style="stop-color:#d30000;stop-opacity:1;"
         offset="0"
         id="stop879" />
      <stop
         style="stop-color:#feff00;stop-opacity:1"
         offset="1"
         id="stop881" />
    </linearGradient>
    <linearGradient
       inkscape:collect="always"
       xlink:href="#linearGradient883"
       id="linearGradient885"
       x1="76.324051"
       y1="143.6631"
       x2="132.55493"
       y2="143.6631"
       gradientUnits="userSpaceOnUse" />
    <linearGradient
       inkscape:collect="always"
       xlink:href="#linearGradient883"
       id="linearGradient887"
       gradientUnits="userSpaceOnUse"
       x1="76.324051"
       y1="143.6631"
       x2="132.55493"
       y2="143.6631" />
    <linearGradient
       inkscape:collect="always"
       xlink:href="#linearGradient883"
       id="linearGradient889"
       gradientUnits="userSpaceOnUse"
       x1="76.324051"
       y1="143.6631"
       x2="132.55493"
       y2="143.6631" />
    <linearGradient
       inkscape:collect="always"
       xlink:href="#linearGradient883"
       id="linearGradient891"
       gradientUnits="userSpaceOnUse"
       x1="76.324051"
       y1="143.6631"
       x2="132.55493"
       y2="143.6631" />
    <linearGradient
       inkscape:collect="always"
       xlink:href="#linearGradient883"
       id="linearGradient893"
       gradientUnits="userSpaceOnUse"
       x1="76.324051"
       y1="143.6631"
       x2="132.55493"
       y2="143.6631" />
    <linearGradient
       inkscape:collect="always"
       xlink:href="#linearGradient883"
       id="linearGradient895"
       gradientUnits="userSpaceOnUse"
       x1="76.324051"
       y1="143.6631"
       x2="132.55493"
       y2="143.6631" />
    <linearGradient
       inkscape:collect="always"
       xlink:href="#linearGradient883"
       id="linearGradient897"
       gradientUnits="userSpaceOnUse"
       x1="76.324051"
       y1="143.6631"
       x2="132.55493"
       y2="143.6631" />
    <linearGradient
       inkscape:collect="always"
       xlink:href="#linearGradient883"
       id="linearGradient899"
       gradientUnits="userSpaceOnUse"
       x1="76.324051"
       y1="143.6631"
       x2="132.55493"
       y2="143.6631" />
    <linearGradient
       inkscape:collect="always"
       xlink:href="#linearGradient883"
       id="linearGradient901"
       gradientUnits="userSpaceOnUse"
       x1="76.324051"
       y1="143.6631"
       x2="132.55493"
       y2="143.6631" />
  </defs>
  <sodipodi:namedview
     id="base"
     pagecolor="#ffffff"
     bordercolor="#666666"
     borderopacity="1.0"
     inkscape:pageopacity="0.0"
     inkscape:pageshadow="2"
     inkscape:zoom="0.98994949"
     inkscape:cx="159.51375"
     inkscape:cy="180.60728"
     inkscape:document-units="mm"
     inkscape:current-layer="layer1"
     showgrid="false"
     inkscape:window-width="1920"
     inkscape:window-height="1001"
     inkscape:window-x="-9"
     inkscape:window-y="-9"
     inkscape:window-maximized="1"
     inkscape:snap-nodes="false"
     inkscape:snap-intersection-paths="true"
     fit-margin-top="10"
     fit-margin-right="10"
     fit-margin-bottom="10"
     fit-margin-left="10" />
  <metadata
     id="metadata5">
    <rdf:RDF>
      <cc:Work
         rdf:about="">
        <dc:format>image/svg+xml</dc:format>
        <dc:type
           rdf:resource="http://purl.org/dc/dcmitype/StillImage" />
        <dc:title></dc:title>
      </cc:Work>
    </rdf:RDF>
  </metadata>
  <g
     inkscape:label="Calque 1"
     inkscape:groupmode="layer"
     id="layer1"
     transform="translate(-5.016955,-97.056092)">
    <g
       id="g999">
      <rect
         ry="24.164129"
         y="108.08797"
         x="16.04883"
         height="48.328262"
         width="184.13602"
         id="rect922"
         style="opacity:1;vector-effect:none;fill:#ffffff;fill-opacity:1;stroke:#000000;stroke-width:2.06375003;stroke-linecap:round;stroke-linejoin:round;stroke-miterlimit:4;stroke-dasharray:none;stroke-dashoffset:0;stroke-opacity:1" />
      <g
         transform="matrix(2.5796375,0,0,2.5796375,-155.71612,-238.17926)"
         id="text860"
         style="font-style:normal;font-variant:normal;font-weight:bold;font-stretch:normal;font-size:10.58333302px;line-height:1.25;font-family:sans-serif;-inkscape-font-specification:'sans-serif Bold';letter-spacing:0px;word-spacing:0px;fill:url(#linearGradient885);fill-opacity:1;stroke:#000000;stroke-width:0.74083334;stroke-miterlimit:4;stroke-dasharray:none;stroke-opacity:1"
         aria-label="CRASH!!!">
        <path
           inkscape:connector-curvature="0"
           id="path862"
           style="fill:url(#linearGradient887);fill-opacity:1;stroke:#000000;stroke-width:0.74083334;stroke-miterlimit:4;stroke-dasharray:none;stroke-opacity:1"
           d="m 80.621877,147.66027 q -0.857829,0 -1.586467,-0.25322 -0.72347,-0.25321 -1.245402,-0.75447 -0.521931,-0.50126 -0.811319,-1.25057 -0.284221,-0.74931 -0.284221,-1.73116 0,-0.91468 0.273885,-1.65882 0.273885,-0.74414 0.795817,-1.2764 0.501262,-0.5116 1.240235,-0.79065 0.74414,-0.27906 1.62264,-0.27906 0.485758,0 0.873331,0.0568 0.392741,0.0517 0.72347,0.13952 0.346232,0.0982 0.625285,0.22221 0.28422,0.11886 0.496094,0.22221 v 1.86552 h -0.227376 q -0.144695,-0.12402 -0.366903,-0.29455 -0.217041,-0.17054 -0.496094,-0.3359 -0.28422,-0.16537 -0.614949,-0.27905 -0.33073,-0.11369 -0.707968,-0.11369 -0.418579,0 -0.795817,0.13436 -0.377237,0.12919 -0.697631,0.43408 -0.304891,0.29455 -0.496094,0.78031 -0.186035,0.48576 -0.186035,1.17823 0,0.72347 0.201538,1.20922 0.206706,0.48576 0.516764,0.76481 0.315226,0.28423 0.7028,0.40825 0.387573,0.11885 0.764811,0.11885 0.361735,0 0.713135,-0.10852 0.356567,-0.10852 0.65629,-0.29455 0.253215,-0.14986 0.470256,-0.3204 0.217041,-0.17053 0.356567,-0.29455 h 0.206706 v 1.83968 q -0.289388,0.12919 -0.552938,0.24288 -0.26355,0.11369 -0.552938,0.19637 -0.377238,0.10852 -0.707967,0.16536 -0.330729,0.0568 -0.909505,0.0568 z" />
        <path
           sodipodi:nodetypes="ccccsccsscccccccccccssccsccc"
           inkscape:connector-curvature="0"
           id="path864"
           style="fill:url(#linearGradient889);fill-opacity:1;stroke:#000000;stroke-width:0.74083334;stroke-miterlimit:4;stroke-dasharray:none;stroke-opacity:1"
           d="m 88.069484,142.17223 c 0,-0.19293 -0.03962,-0.35829 -0.118855,-0.49609 -0.07924,-0.13781 -0.215319,-0.24633 -0.408244,-0.32556 -0.134359,-0.0551 -0.291111,-0.0879 -0.470256,-0.0982 -0.179145,-0.0138 -0.387573,-0.0207 -0.625285,-0.0207 h -0.718302 v 2.07223 h 0.609782 c 0.316948,0 0.582221,-0.0155 0.795817,-0.0465 0.213596,-0.031 0.392741,-0.10163 0.537435,-0.21188 0.137804,-0.10679 0.237711,-0.22393 0.299723,-0.3514 0.06545,-0.13091 0.09818,-0.30489 0.09818,-0.52193 z m 3.095419,5.33818 h -2.423625 l -2.098063,-2.82154 h -0.914673 v 2.82154 h -1.97404 v -7.69462 h 3.327962 c 0.454752,0 0.845771,0.0258 1.173055,0.0775 0.327284,0.0517 0.633898,0.16363 0.919841,0.3359 0.289388,0.17225 0.518486,0.39618 0.687296,0.67179 0.172255,0.27216 0.258383,0.61495 0.258383,1.02836 0,0.56844 -0.132637,1.03181 -0.397909,1.3901 -0.261828,0.35829 -0.637343,0.65629 -1.126546,0.894 z" />
        <path
           sodipodi:nodetypes="ccccccccccccc"
           inkscape:connector-curvature="0"
           id="path866"
           style="fill:url(#linearGradient891);fill-opacity:1;stroke:#000000;stroke-width:0.74083334;stroke-miterlimit:4;stroke-dasharray:none;stroke-opacity:1"
           d="M 99.683243,147.51041 H 97.63169 l -0.532267,-1.55546 h -2.852539 l -0.532267,1.55546 h -1.999878 l 2.842204,-7.69462 h 2.284098 z m -3.064411,-2.96623 -0.945678,-2.75952 -0.945679,2.75952 z" />
        <path
           inkscape:connector-curvature="0"
           id="path868"
           style="fill:url(#linearGradient893);fill-opacity:1;stroke:#000000;stroke-width:0.74083334;stroke-miterlimit:4;stroke-dasharray:none;stroke-opacity:1"
           d="m 107.48845,145.09195 q 0,1.13688 -0.96635,1.85002 -0.96118,0.70796 -2.61482,0.70796 -0.95602,0 -1.66915,-0.16536 -0.70797,-0.17053 -1.32809,-0.42892 v -1.84484 h 0.21705 q 0.61494,0.49092 1.37459,0.75447 0.76481,0.26355 1.46761,0.26355 0.18087,0 0.47542,-0.031 0.29456,-0.031 0.48059,-0.10336 0.22738,-0.093 0.37207,-0.23254 0.14986,-0.13953 0.14986,-0.41341 0,-0.25322 -0.21704,-0.43409 -0.21187,-0.18603 -0.62528,-0.28422 -0.43408,-0.10335 -0.91984,-0.1912 -0.48059,-0.093 -0.90434,-0.23254 -0.97152,-0.31523 -1.40043,-0.85266 -0.42375,-0.54261 -0.42375,-1.34359 0,-1.07487 0.96118,-1.75183 0.96635,-0.68213 2.48047,-0.68213 0.75965,0 1.49862,0.14986 0.74414,0.1447 1.28674,0.3669 v 1.77251 h -0.21187 q -0.46509,-0.37207 -1.14205,-0.62012 -0.67179,-0.25322 -1.37459,-0.25322 -0.24805,0 -0.4961,0.0362 -0.24288,0.031 -0.47025,0.12402 -0.20154,0.0775 -0.34623,0.23771 -0.1447,0.15503 -0.1447,0.35657 0,0.30489 0.23255,0.47026 0.23254,0.16019 0.8785,0.29455 0.42374,0.0879 0.81132,0.17053 0.39274,0.0827 0.84232,0.22738 0.88367,0.28939 1.30225,0.79065 0.42374,0.49609 0.42374,1.29191 z" />
        <path
           sodipodi:nodetypes="ccccccccccccc"
           inkscape:connector-curvature="0"
           id="path870"
           style="fill:url(#linearGradient895);fill-opacity:1;stroke:#000000;stroke-width:0.74083334;stroke-miterlimit:4;stroke-dasharray:none;stroke-opacity:1"
           d="m 116.28068,147.51041 h -1.98437 v -3.38998 h -2.93005 v 3.38998 h -1.98438 v -7.69462 h 1.98438 v 2.81636 h 2.93005 v -2.81636 h 1.98437 z" />
        <path
           sodipodi:nodetypes="cccccccccc"
           inkscape:connector-curvature="0"
           id="path872"
           style="fill:url(#linearGradient897);fill-opacity:1;stroke:#000000;stroke-width:0.74083334;stroke-miterlimit:4;stroke-dasharray:none;stroke-opacity:1"
           d="m 121.00597,139.81579 -0.23771,5.4777 h -1.68465 l -0.23772,-5.4777 z m -0.0362,7.69462 h -2.08773 v -1.36426 h 2.08773 z" />
        <path
           sodipodi:nodetypes="cccccccccc"
           inkscape:connector-curvature="0"
           id="path874"
           style="fill:url(#linearGradient899);fill-opacity:1;stroke:#000000;stroke-width:0.74083334;stroke-miterlimit:4;stroke-dasharray:none;stroke-opacity:1"
           d="m 126.32245,139.81579 -0.23771,5.4777 h -1.68465 l -0.23771,-5.4777 z m -0.0362,7.69462 h -2.08773 v -1.36426 h 2.08773 z" />
        <path
           sodipodi:nodetypes="cccccccccc"
           inkscape:connector-curvature="0"
           id="path876"
           style="fill:url(#linearGradient901);fill-opacity:1;stroke:#000000;stroke-width:0.74083334;stroke-miterlimit:4;stroke-dasharray:none;stroke-opacity:1"
           d="m 132.16809,139.81579 -0.23771,5.4777 h -1.68466 l -0.23771,-5.4777 z m -0.0362,7.69462 h -2.08772 v -1.36426 h 2.08772 z" />
      </g>
      <path
         inkscape:connector-curvature="0"
         id="path903"
         transform="scale(0.26458333)"
         d="m 151.41992,408.3418 -0.15234,0.002 a 92.142859,92.142859 0 0 0 -91.337892,92.90234 92.142859,92.142859 0 0 0 92.863282,91.37696 92.142859,92.142859 0 0 0 2.81836,-0.1211 v -82.60547 l -5.84961,5.27149 -1.20703,-0.13867 -1.9336,8.9082 -6.10937,1.95312 2.35351,4.61915 1.37696,4.32421 -5.5625,2.89844 4.7832,-3.70508 -1.71484,-3.8164 -3.50586,-5.52735 6.79492,-2.07226 1.16992,-7.85352 -12.11523,-1.39453 -12.07032,10.56641 0.38282,0.2207 0.90039,4.23047 -3.56055,4.79883 1.20703,6.09179 -2.91601,2.76368 1.54687,4.43554 -3.24805,-4.99414 3.33204,-2.5625 -1.7461,-6.33008 3.4043,-5.19921 -2.9336,-4.22657 -6.79687,-2.01758 -8.09375,9.38672 5.26758,-10.35546 -5.73047,-7.21094 -6.921876,1.60156 0.273438,-6.53906 -3.814453,-5.99414 -5.994141,-0.81836 6.265625,-0.27149 4.359375,6.26563 0.273438,5.17773 6.265624,-1.36328 6.20313,6.83008 0.67968,-1.33399 10.25391,4.23633 8.92773,-9.06054 -2.59961,-5.50977 -7.91406,0.44141 -5.88086,-5.96485 -4.95508,2.04688 -3.44336,-6.77149 3.91211,4.53516 4.91211,-1.45703 5.95899,5.2168 7.57422,-0.87305 5.92187,5.06641 16.12891,0.90234 3.8164,-8.08984 -13.66601,-17.19922 -18.14649,4.19922 0.71485,-17.14258 -10,-15.71485 -4.42969,-0.9375 -8.677734,4.30469 -6.341797,-3.63476 -4.441406,6.46484 -4.0625,-5.6211 -3.947265,3.00586 3.863281,-4.48828 4.267578,4.92578 3.607422,-8.33203 5.484375,5.27149 5.482426,-2.90625 9.91015,-0.91016 3.32617,4.7832 0.10938,-2.08203 5.23242,-4.15234 0.46094,-6.92578 3.94922,-2.14063 -0.38867,-5.23633 2.0625,6.33204 -4.33985,1.80078 0.0547,7.33984 -5.17969,4.63086 2.41406,6.72266 3.72657,5.35742 0.71484,13.57031 15.98633,-3.47461 3.48437,-4.69726 -2.28515,-4.16211 1.6914,-2.91993 -1.63281,-4.81054 2.92578,4.76953 -1.62695,3.33789 2.85351,4.41406 -3.59179,5.49024 12.80664,14.09961 v -86.04493 a 92.142859,92.142859 0 0 0 -4.19141,-0.17968 z"
         style="opacity:1;vector-effect:none;fill:#040000;fill-opacity:1;stroke:none;stroke-width:2.79999971;stroke-linecap:round;stroke-linejoin:round;stroke-miterlimit:4;stroke-dasharray:none;stroke-dashoffset:0;stroke-opacity:1" />
      <path
         inkscape:connector-curvature="0"
         id="path926"
         d="M 41.172164,156.76615 H 68.420998 L 21.494453,183.8592 Z"
         style="fill:none;stroke:#000000;stroke-width:2.06375003;stroke-linecap:round;stroke-linejoin:round;stroke-miterlimit:4;stroke-dasharray:none;stroke-opacity:1" />
      <path
         sodipodi:nodetypes="ccccc"
         inkscape:connector-curvature="0"
         id="path930"
         d="m 41.056131,158.67016 23.21603,-0.66957 11.701053,-7.65535 h -34.77381 z"
         style="fill:#ffffff;fill-opacity:1;stroke:none;stroke-width:0.2635085px;stroke-linecap:butt;stroke-linejoin:miter;stroke-opacity:1" />
      <path
         inkscape:connector-curvature="0"
         id="path953"
         d="m 42.04985,130.26525 2.976563,-3.07106 0.472471,0.51972 1.55915,-2.59858 3.260045,-0.70871 -2.929315,1.46466 -1.41741,3.02381 -0.992188,-0.37798 -2.126115,2.45685 z"
         style="fill:#000000;fill-opacity:1;stroke:none;stroke-width:0.26458332px;stroke-linecap:butt;stroke-linejoin:miter;stroke-opacity:1" />
      <path
         sodipodi:nodetypes="cccccccccc"
         style="fill:#000000;fill-opacity:1;stroke:none;stroke-width:0.26458332px;stroke-linecap:butt;stroke-linejoin:miter;stroke-opacity:1"
         d="m 42.191591,134.28125 2.693081,3.3073 0.755953,-0.75596 0.992186,2.69307 2.173363,-0.42521 -1.795386,-0.23624 -1.133928,-4.11049 -0.944941,1.03943 -1.937127,-2.22061 z"
         id="path955"
         inkscape:connector-curvature="0" />
      <path
         inkscape:connector-curvature="0"
         id="path957"
         d="m 42.009694,133.19207 1.775618,0.79963 0.18885,-0.70484 1.505541,1.25327 0.856077,-0.63869 -0.858388,0.11871 -2.073049,-2.04272 -0.203828,0.93689 -1.194147,-0.65152 z"
         style="fill:#000000;fill-opacity:1;stroke:none;stroke-width:0.18058854px;stroke-linecap:butt;stroke-linejoin:miter;stroke-opacity:1"
         sodipodi:nodetypes="cccccccccc" />
      <path
         style="fill:#000000;fill-opacity:1;stroke:none;stroke-width:0.14748473px;stroke-linecap:butt;stroke-linejoin:miter;stroke-opacity:1"
         d="m 42.279218,132.52118 2.082982,-1.1596 -0.211665,-0.32937 1.624088,-0.46459 0.851919,-1.65305 -1.21123,1.36591 -1.832597,0.32693 0.06037,0.58876 -1.629574,0.7903 z"
         id="path959"
         inkscape:connector-curvature="0" />
      <path
         inkscape:connector-curvature="0"
         id="path961"
         d="m 41.845368,124.12508 -0.223523,-1.08569 0.490049,-0.43456 0.143199,0.53443 z"
         style="fill:#000000;fill-opacity:1;stroke:none;stroke-width:0.09112785px;stroke-linecap:butt;stroke-linejoin:miter;stroke-opacity:1" />
      <path
         style="fill:#000000;fill-opacity:1;stroke:none;stroke-width:0.10185823px;stroke-linecap:butt;stroke-linejoin:miter;stroke-opacity:1"
         d="m 44.368352,120.20285 0.390394,-1.17586 0.717232,-0.14679 -0.160062,0.59736 z"
         id="path963"
         inkscape:connector-curvature="0" />
      <path
         inkscape:connector-curvature="0"
         id="path965"
         d="m 43.175187,117.63511 0.103943,-1.76703 0.935491,-0.46776 -1e-6,0.88353 z"
         style="fill:#000000;fill-opacity:1;stroke:none;stroke-width:0.1455207px;stroke-linecap:butt;stroke-linejoin:miter;stroke-opacity:1" />
      <path
         style="fill:#000000;fill-opacity:1;stroke:none;stroke-width:0.09112785px;stroke-linecap:butt;stroke-linejoin:miter;stroke-opacity:1"
         d="m 42.128271,139.25084 0.925753,0.60965 -0.03924,0.65379 -0.479157,-0.27664 z"
         id="path967"
         inkscape:connector-curvature="0" />
      <path
         inkscape:connector-curvature="0"
         id="path969"
         d="m 42.31199,141.54588 0.823127,0.92603 -0.231486,0.69453 -0.437297,-0.4373 z"
         style="fill:#000000;fill-opacity:1;stroke:none;stroke-width:0.10185823px;stroke-linecap:butt;stroke-linejoin:miter;stroke-opacity:1" />
      <path
         style="fill:#000000;fill-opacity:1;stroke:none;stroke-width:0.1455207px;stroke-linecap:butt;stroke-linejoin:miter;stroke-opacity:1"
         d="m 46.01088,143.90438 1.478321,0.97353 -0.06265,1.04404 -0.765159,-0.44177 z"
         id="path971"
         inkscape:connector-curvature="0" />
      <path
         inkscape:connector-curvature="0"
         id="path973"
         d="m 43.226102,147.76344 1.511956,1.70095 -0.425222,1.27574 -0.803239,-0.80324 z"
         style="fill:#000000;fill-opacity:1;stroke:none;stroke-width:0.18709579px;stroke-linecap:butt;stroke-linejoin:miter;stroke-opacity:1" />
    </g>
  </g>
</svg>
