<?xml version="1.0" encoding="UTF-8" standalone="no"?>
<!-- Created with Inkscape (http://www.inkscape.org/) -->

<svg
   xmlns:dc="http://purl.org/dc/elements/1.1/"
   xmlns:cc="http://creativecommons.org/ns#"
   xmlns:rdf="http://www.w3.org/1999/02/22-rdf-syntax-ns#"
   xmlns:svg="http://www.w3.org/2000/svg"
   xmlns="http://www.w3.org/2000/svg"
   xmlns:sodipodi="http://sodipodi.sourceforge.net/DTD/sodipodi-0.dtd"
   xmlns:inkscape="http://www.inkscape.org/namespaces/inkscape"
   width="353.41125"
   height="479.65039"
   viewBox="0 0 93.506721 126.90751"
   version="1.1"
   id="svg8"
   inkscape:version="0.92.4 (5da689c313, 2019-01-14)"
   sodipodi:docname="Cédric Maria-Sube.svg">
  <defs
     id="defs2" />
  <sodipodi:namedview
     id="base"
     pagecolor="#ffffff"
     bordercolor="#666666"
     borderopacity="1.0"
     inkscape:pageopacity="0.0"
     inkscape:pageshadow="2"
     inkscape:zoom="0.50304499"
     inkscape:cx="91.898227"
     inkscape:cy="377.55786"
     inkscape:document-units="mm"
     inkscape:current-layer="layer1"
     showgrid="false"
     inkscape:window-width="1920"
     inkscape:window-height="1001"
     inkscape:window-x="-9"
     inkscape:window-y="-9"
     inkscape:window-maximized="1"
     fit-margin-top="10"
     fit-margin-left="10"
     fit-margin-bottom="10"
     fit-margin-right="10"
     inkscape:snap-global="true"
     units="px"
     inkscape:pagecheckerboard="false" />
  <metadata
     id="metadata5">
    <rdf:RDF>
      <cc:Work
         rdf:about="">
        <dc:format>image/svg+xml</dc:format>
        <dc:type
           rdf:resource="http://purl.org/dc/dcmitype/StillImage" />
        <dc:title></dc:title>
      </cc:Work>
    </rdf:RDF>
  </metadata>
  <g
     inkscape:label="Calque 1"
     inkscape:groupmode="layer"
     id="layer1"
     transform="translate(-58.701988,-71.184107)">
    <g
       id="g886"
       transform="translate(0.14310363)"
       inkscape:label="ears">
      <g
         transform="translate(33.408691,13.877339)"
         id="g872">
        <circle
           style="opacity:1;vector-effect:none;fill:#f3c490;fill-opacity:1;stroke:none;stroke-width:0.26499999;stroke-linecap:round;stroke-linejoin:round;stroke-miterlimit:4;stroke-dasharray:none;stroke-dashoffset:0;stroke-opacity:0"
           id="path866"
           cx="39.422253"
           cy="118.06305"
           r="11.626225" />
        <circle
           r="6.1472001"
           cy="118.06305"
           cx="39.422253"
           id="circle868"
           style="opacity:1;vector-effect:none;fill:#ff9955;fill-opacity:1;stroke:none;stroke-width:0.14011495;stroke-linecap:round;stroke-linejoin:round;stroke-miterlimit:4;stroke-dasharray:none;stroke-dashoffset:0;stroke-opacity:0" />
      </g>
      <g
         id="g878"
         transform="translate(98.371302,13.877339)"
         inkscape:label="left ear">
        <circle
           r="11.626225"
           cy="118.06305"
           cx="39.422253"
           id="circle874"
           style="opacity:1;vector-effect:none;fill:#f3c490;fill-opacity:1;stroke:none;stroke-width:0.26499999;stroke-linecap:round;stroke-linejoin:round;stroke-miterlimit:4;stroke-dasharray:none;stroke-dashoffset:0;stroke-opacity:0" />
        <circle
           style="opacity:1;vector-effect:none;fill:#ff9955;fill-opacity:1;stroke:none;stroke-width:0.14011495;stroke-linecap:round;stroke-linejoin:round;stroke-miterlimit:4;stroke-dasharray:none;stroke-dashoffset:0;stroke-opacity:0"
           id="circle876"
           cx="39.422253"
           cy="118.06305"
           r="6.1472001" />
      </g>
    </g>
    <rect
       style="opacity:1;vector-effect:none;fill:#502d16;fill-opacity:1;stroke:none;stroke-width:0.19633;stroke-linecap:round;stroke-linejoin:round;stroke-miterlimit:4;stroke-dasharray:none;stroke-dashoffset:0;stroke-opacity:0"
       id="rect860"
       width="27.476023"
       height="35.822311"
       x="151.19975"
       y="116.15727"
       ry="11.332585"
       transform="rotate(15)" />
    <rect
       ry="5.8435407"
       y="84.520721"
       x="67.631508"
       height="34.485962"
       width="22.995586"
       id="rect901"
       style="opacity:1;vector-effect:none;fill:#502d16;fill-opacity:1;stroke:none;stroke-width:0.17622858;stroke-linecap:round;stroke-linejoin:round;stroke-miterlimit:4;stroke-dasharray:none;stroke-dashoffset:0;stroke-opacity:0" />
    <rect
       style="opacity:1;vector-effect:none;fill:#502d16;fill-opacity:1;stroke:none;stroke-width:0.17622858;stroke-linecap:round;stroke-linejoin:round;stroke-miterlimit:4;stroke-dasharray:none;stroke-dashoffset:0;stroke-opacity:0"
       id="rect903"
       width="22.995586"
       height="34.485962"
       x="120.81815"
       y="84.520721"
       ry="5.8435407" />
    <rect
       ry="11.332585"
       y="170.60806"
       x="24.537174"
       height="35.822311"
       width="27.476023"
       id="rect914"
       style="opacity:1;vector-effect:none;fill:#502d16;fill-opacity:1;stroke:none;stroke-width:0.19633;stroke-linecap:round;stroke-linejoin:round;stroke-miterlimit:4;stroke-dasharray:none;stroke-dashoffset:0;stroke-opacity:0"
       transform="rotate(-15)" />
    <rect
       style="opacity:1;vector-effect:none;fill:#f3c490;fill-opacity:1;stroke:none;stroke-width:0.24355371;stroke-linecap:round;stroke-linejoin:round;stroke-miterlimit:4;stroke-dasharray:none;stroke-dashoffset:0;stroke-opacity:0"
       id="rect815"
       width="65.767853"
       height="70.240074"
       x="72.571426"
       y="97.147461"
       ry="9.859271"
       inkscape:label="face" />
    <rect
       ry="5.4445672"
       y="120.31416"
       x="99.728195"
       height="29.28981"
       width="11.454312"
       id="rect817"
       style="opacity:1;vector-effect:none;fill:#ff9955;fill-opacity:1;stroke:none;stroke-width:0.29426649;stroke-linecap:round;stroke-linejoin:round;stroke-miterlimit:4;stroke-dasharray:none;stroke-dashoffset:0;stroke-opacity:0"
       inkscape:label="nose" />
    <rect
       style="opacity:1;vector-effect:none;fill:#502d16;fill-opacity:1;stroke:none;stroke-width:0.26499999;stroke-linecap:round;stroke-linejoin:round;stroke-miterlimit:4;stroke-dasharray:none;stroke-dashoffset:0;stroke-opacity:0"
       id="rect856"
       width="40.902645"
       height="43.840397"
       x="85.004028"
       y="151.60538"
       ry="7.4286208" />
    <path
       style="opacity:1;vector-effect:none;fill:none;fill-opacity:1;stroke:#ff9955;stroke-width:1.454;stroke-linecap:round;stroke-linejoin:round;stroke-miterlimit:4;stroke-dasharray:none;stroke-dashoffset:0;stroke-opacity:1"
       d="m 148.47343,131.40722 c 0,0 0.40256,3.43663 -1.64363,6.25728 -2.0462,2.82064 -3.10397,3.34637 -6.55419,4.68468"
       id="path2276"
       inkscape:connector-curvature="0"
       sodipodi:nodetypes="czc" />
    <path
       sodipodi:nodetypes="cc"
       inkscape:connector-curvature="0"
       id="path2278"
       d="m 138.81709,121.24203 c 0,0 3.16386,0.34659 5.32538,2.11531"
       style="opacity:1;vector-effect:none;fill:none;fill-opacity:1;stroke:#ff9955;stroke-width:1.454;stroke-linecap:round;stroke-linejoin:round;stroke-miterlimit:4;stroke-dasharray:none;stroke-dashoffset:0;stroke-opacity:1" />
    <path
       sodipodi:nodetypes="czc"
       inkscape:connector-curvature="0"
       id="path2280"
       d="m 71.465014,142.35545 c 0,0 -2.19171,-0.0957 -4.06911,-1.64702 -1.8774,-1.55132 -3.377564,-2.61485 -4.677615,-6.07966"
       style="opacity:1;vector-effect:none;fill:none;fill-opacity:1;stroke:#ff9955;stroke-width:1.454;stroke-linecap:round;stroke-linejoin:round;stroke-miterlimit:4;stroke-dasharray:none;stroke-dashoffset:0;stroke-opacity:1" />
    <g
       id="g2175"
       transform="matrix(1,0,0,0.86679989,0,12.468582)">
      <rect
         style="opacity:1;vector-effect:none;fill:#502d16;fill-opacity:1;stroke:none;stroke-width:0.12076256;stroke-linecap:round;stroke-linejoin:round;stroke-miterlimit:4;stroke-dasharray:none;stroke-dashoffset:0;stroke-opacity:0"
         id="rect897"
         width="4.2867198"
         height="86.870789"
         x="70.437843"
         y="93.607887"
         ry="3.4797075" />
      <rect
         ry="3.4797075"
         y="93.607887"
         x="136.18614"
         height="86.870789"
         width="4.2867198"
         id="rect899"
         style="opacity:1;vector-effect:none;fill:#502d16;fill-opacity:1;stroke:none;stroke-width:0.12076256;stroke-linecap:round;stroke-linejoin:round;stroke-miterlimit:4;stroke-dasharray:none;stroke-dashoffset:0;stroke-opacity:0" />
    </g>
    <rect
       inkscape:label="nose"
       style="opacity:1;vector-effect:none;fill:#f7d9b8;fill-opacity:1;stroke:none;stroke-width:0.14179856;stroke-linecap:round;stroke-linejoin:round;stroke-miterlimit:4;stroke-dasharray:none;stroke-dashoffset:0;stroke-opacity:0"
       id="rect2245"
       width="7.8291769"
       height="9.9501905"
       x="76.812881"
       y="100.68156"
       ry="1.8496017" />
    <rect
       ry="2.8618972"
       y="93.325859"
       x="79.963974"
       height="15.395975"
       width="59.781319"
       id="rect2243"
       style="opacity:1;vector-effect:none;fill:#ff9955;fill-opacity:1;stroke:none;stroke-width:0.48739874;stroke-linecap:round;stroke-linejoin:round;stroke-miterlimit:4;stroke-dasharray:none;stroke-dashoffset:0;stroke-opacity:0"
       inkscape:label="nose" />
    <rect
       ry="5.1189327"
       y="73.829941"
       x="76.756279"
       height="30.20965"
       width="69.767754"
       id="rect905"
       style="opacity:1;vector-effect:none;fill:#502d16;fill-opacity:1;stroke:none;stroke-width:0.28729835;stroke-linecap:round;stroke-linejoin:round;stroke-miterlimit:4;stroke-dasharray:none;stroke-dashoffset:0;stroke-opacity:0" />
    <path
       style="opacity:1;vector-effect:none;fill:none;fill-opacity:1;stroke:#a05a2c;stroke-width:8.44743252;stroke-linecap:round;stroke-linejoin:round;stroke-miterlimit:4;stroke-dasharray:none;stroke-dashoffset:0;stroke-opacity:1"
       d="m 540.89648,304.84766 c 0,-8.88414 -7.15297,-16.03516 -16.0371,-16.03516 H 316.46289 c -8.88413,0 -16.03516,7.15102 -16.03516,16.03516 v 12.92578"
       id="rect926"
       inkscape:connector-curvature="0"
       sodipodi:nodetypes="csssc"
       transform="scale(0.26458333)" />
    <path
       sodipodi:nodetypes="csc"
       inkscape:connector-curvature="0"
       id="path931"
       d="m 74.688087,87.248583 c -2.350592,0 -4.242636,1.892041 -4.242636,4.242636 v 3.419946"
       style="opacity:1;vector-effect:none;fill:none;fill-opacity:1;stroke:#a05a2c;stroke-width:2.23504972;stroke-linecap:round;stroke-linejoin:round;stroke-miterlimit:4;stroke-dasharray:none;stroke-dashoffset:0;stroke-opacity:1" />
    <path
       style="opacity:1;vector-effect:none;fill:none;fill-opacity:1;stroke:#a05a2c;stroke-width:2.23504996;stroke-linecap:round;stroke-linejoin:round;stroke-miterlimit:4;stroke-dasharray:none;stroke-dashoffset:0;stroke-opacity:1"
       d="m 99.942507,154.45323 h -8.042404 c -2.350592,0 -4.242636,1.89205 -4.242636,4.24264 v 3.41995"
       id="rect926-0"
       inkscape:connector-curvature="0"
       sodipodi:nodetypes="cssc" />
    <rect
       style="opacity:1;vector-effect:none;fill:#f3c490;fill-opacity:1;stroke:none;stroke-width:0.08628706;stroke-linecap:round;stroke-linejoin:round;stroke-miterlimit:4;stroke-dasharray:none;stroke-dashoffset:0;stroke-opacity:0"
       id="rect815-1"
       width="27.288908"
       height="21.247816"
       x="91.810898"
       y="159.62358"
       ry="1.3760536" />
    <path
       style="opacity:1;vector-effect:none;fill:#ffffff;fill-opacity:1;stroke:none;stroke-width:0.27403408;stroke-linecap:round;stroke-linejoin:round;stroke-miterlimit:4;stroke-dasharray:none;stroke-dashoffset:0;stroke-opacity:0"
       d="m 93.311649,159.62358 a 12.160764,12.160764 0 0 0 12.146551,11.75949 12.160764,12.160764 0 0 0 12.14086,-11.75949 z"
       id="path851"
       inkscape:connector-curvature="0"
       inkscape:label="teeth" />
    <rect
       ry="1.605063"
       y="174.7563"
       x="97.052994"
       height="9.4723644"
       width="16.804716"
       id="rect978"
       style="opacity:1;vector-effect:none;fill:#502d16;fill-opacity:1;stroke:none;stroke-width:0.07895464;stroke-linecap:round;stroke-linejoin:round;stroke-miterlimit:4;stroke-dasharray:none;stroke-dashoffset:0;stroke-opacity:0" />
    <path
       sodipodi:nodetypes="csc"
       inkscape:connector-curvature="0"
       id="path931-9"
       d="m 100.76021,176.73763 c -1.031197,0 -1.861237,1.02853 -1.861237,2.30633 v 1.85912"
       style="opacity:1;vector-effect:none;fill:none;fill-opacity:1;stroke:#a05a2c;stroke-width:1.0914762;stroke-linecap:round;stroke-linejoin:round;stroke-miterlimit:4;stroke-dasharray:none;stroke-dashoffset:0;stroke-opacity:1" />
    <path
       sodipodi:nodetypes="cscc"
       inkscape:connector-curvature="0"
       id="path1084"
       d="m 119.67693,184.13506 v 5.2711 c 0,0.50683 0.5254,1.83911 -1.72576,2.40655 l -2.26435,-0.0887"
       style="opacity:1;vector-effect:none;fill:#c8beb7;fill-opacity:1;stroke:#c8beb7;stroke-width:5.75400019;stroke-linecap:round;stroke-linejoin:round;stroke-miterlimit:4;stroke-dasharray:none;stroke-dashoffset:0;stroke-opacity:1" />
    <path
       sodipodi:nodetypes="csc"
       inkscape:connector-curvature="0"
       id="path931-7-2"
       d="m 119.00951,193.40022 c 2.35059,0 4.24264,-1.89204 4.24264,-4.24263 v -27.23245"
       style="opacity:0.75;vector-effect:none;fill:none;fill-opacity:1;stroke:#211209;stroke-width:2.2350502;stroke-linecap:round;stroke-linejoin:round;stroke-miterlimit:4;stroke-dasharray:none;stroke-dashoffset:0;stroke-opacity:1" />
    <g
       id="g2253"
       transform="translate(0.04376316)">
      <rect
         ry="1.5014784"
         y="111.32283"
         x="77.183228"
         height="8.0774126"
         width="22.89163"
         id="rect2247"
         style="opacity:1;vector-effect:none;fill:#f7d9b8;fill-opacity:1;stroke:none;stroke-width:0.21846031;stroke-linecap:round;stroke-linejoin:round;stroke-miterlimit:4;stroke-dasharray:none;stroke-dashoffset:0;stroke-opacity:0"
         inkscape:label="nose" />
      <rect
         inkscape:label="nose"
         style="opacity:1;vector-effect:none;fill:#f7d9b8;fill-opacity:1;stroke:none;stroke-width:0.21846031;stroke-linecap:round;stroke-linejoin:round;stroke-miterlimit:4;stroke-dasharray:none;stroke-dashoffset:0;stroke-opacity:0"
         id="rect2249"
         width="22.89163"
         height="8.0774126"
         x="110.74832"
         y="111.32283"
         ry="1.5014784" />
    </g>
    <g
       id="g2218"
       inkscape:label="eyebrows">
      <g
         inkscape:label="right eyebrow"
         id="g1066">
        <rect
           style="opacity:1;vector-effect:none;fill:#502d16;fill-opacity:1;stroke:none;stroke-width:0.05189116;stroke-linecap:round;stroke-linejoin:round;stroke-miterlimit:4;stroke-dasharray:none;stroke-dashoffset:0;stroke-opacity:0"
           id="rect916"
           width="17.115656"
           height="4.0172362"
           x="78.856834"
           y="113.33749"
           ry="1.5311563" />
        <path
           style="opacity:1;vector-effect:none;fill:none;fill-opacity:1;stroke:#a05a2c;stroke-width:0.76369071;stroke-linecap:round;stroke-linejoin:round;stroke-miterlimit:4;stroke-dasharray:none;stroke-dashoffset:0;stroke-opacity:1"
           d="m 80.930787,114.04812 c -0.721514,0 -1.302282,0.71965 -1.302282,1.61371"
           id="path1029"
           inkscape:connector-curvature="0"
           sodipodi:nodetypes="cc" />
        <path
           style="opacity:0.75;vector-effect:none;fill:none;fill-opacity:1;stroke:#211209;stroke-width:2.88638997;stroke-linecap:round;stroke-linejoin:round;stroke-miterlimit:4;stroke-dasharray:none;stroke-dashoffset:0;stroke-opacity:1"
           d="m 335.28711,440.33398 h 19.63086 c 1.31703,-0.35289 2.32962,-1.32839 2.90363,-2.62367 0.57401,-1.29528 0.70944,-2.91034 0.27215,-4.54234"
           transform="scale(0.26458333)"
           id="path1043"
           inkscape:connector-curvature="0"
           sodipodi:nodetypes="ccsc" />
      </g>
      <g
         inkscape:label="left eyebrow"
         transform="translate(36.081384)"
         id="g1074">
        <rect
           ry="1.5311563"
           y="113.33749"
           x="78.856834"
           height="4.0172362"
           width="17.115656"
           id="rect1068"
           style="opacity:1;vector-effect:none;fill:#502d16;fill-opacity:1;stroke:none;stroke-width:0.05189116;stroke-linecap:round;stroke-linejoin:round;stroke-miterlimit:4;stroke-dasharray:none;stroke-dashoffset:0;stroke-opacity:0" />
        <path
           sodipodi:nodetypes="cc"
           inkscape:connector-curvature="0"
           id="path1070"
           d="m 80.930787,114.04812 c -0.721514,0 -1.302282,0.71965 -1.302282,1.61371"
           style="opacity:1;vector-effect:none;fill:none;fill-opacity:1;stroke:#a05a2c;stroke-width:0.76369071;stroke-linecap:round;stroke-linejoin:round;stroke-miterlimit:4;stroke-dasharray:none;stroke-dashoffset:0;stroke-opacity:1" />
        <path
           sodipodi:nodetypes="ccsc"
           inkscape:connector-curvature="0"
           id="path1072"
           transform="scale(0.26458333)"
           d="m 335.28711,440.33398 h 19.63086 c 1.31703,-0.35289 2.32962,-1.32839 2.90363,-2.62367 0.57401,-1.29528 0.70944,-2.91034 0.27215,-4.54234"
           style="opacity:0.75;vector-effect:none;fill:none;fill-opacity:1;stroke:#211209;stroke-width:2.88638997;stroke-linecap:round;stroke-linejoin:round;stroke-miterlimit:4;stroke-dasharray:none;stroke-dashoffset:0;stroke-opacity:1" />
      </g>
    </g>
    <path
       sodipodi:nodetypes="cssc"
       inkscape:connector-curvature="0"
       id="path1076"
       d="m 83.859606,100.9243 h 55.138234 c 2.35059,0 4.24263,-1.892035 4.24263,-4.242631 V 87.44089"
       style="opacity:0.75;vector-effect:none;fill:none;fill-opacity:1;stroke:#211209;stroke-width:3.93499994;stroke-linecap:round;stroke-linejoin:round;stroke-miterlimit:4;stroke-dasharray:none;stroke-dashoffset:0;stroke-opacity:1" />
    <path
       style="opacity:0.75;vector-effect:none;fill:none;fill-opacity:1;stroke:#211209;stroke-width:2.23504972;stroke-linecap:round;stroke-linejoin:round;stroke-miterlimit:4;stroke-dasharray:none;stroke-dashoffset:0;stroke-opacity:1"
       d="m 121.32836,179.44269 v -17.5674 c 0,-2.35059 -1.89203,-4.24263 -4.24263,-4.24263 H 94.086617"
       id="path1078"
       inkscape:connector-curvature="0"
       sodipodi:nodetypes="cssc" />
    <path
       sodipodi:nodetypes="cszc"
       inkscape:connector-curvature="0"
       id="path1080"
       d="m 72.571426,150.98337 v 15.9799 c 0,2.3506 2.63134,12.17432 3.723687,14.79188 1.092346,2.61756 2.583147,4.34814 2.583147,4.34814"
       style="opacity:1;vector-effect:none;fill:none;fill-opacity:1;stroke:#a05a2c;stroke-width:2.23504996;stroke-linecap:round;stroke-linejoin:round;stroke-miterlimit:4;stroke-dasharray:none;stroke-dashoffset:0;stroke-opacity:1" />
    <path
       style="opacity:1;vector-effect:none;fill:#c8beb7;fill-opacity:1;stroke:#c8beb7;stroke-width:5.75400019;stroke-linecap:round;stroke-linejoin:round;stroke-miterlimit:4;stroke-dasharray:none;stroke-dashoffset:0;stroke-opacity:1"
       d="m 90.643125,184.13506 v 5.2711 c 0,0.50683 -0.525401,1.83911 1.725752,2.40655 l 2.264357,-0.0887"
       id="path1082"
       inkscape:connector-curvature="0"
       sodipodi:nodetypes="cscc" />
    <path
       sodipodi:nodetypes="csszc"
       inkscape:connector-curvature="0"
       id="path1088"
       d="m 138.81163,83.173672 c 0,0 1.08866,3.759532 -2.80726,4.637902 -8.51143,1.918979 -18.55845,-4.152566 -27.11896,-6.533038 -4.52264,-1.257639 -20.627494,-2.542386 -27.39417,4.893483 -6.766676,7.435869 -1.580628,10.893768 -1.580628,10.893768"
       style="opacity:1;vector-effect:none;fill:none;fill-opacity:1;stroke:#c8beb7;stroke-width:2.63499999;stroke-linecap:round;stroke-linejoin:round;stroke-miterlimit:4;stroke-dasharray:none;stroke-dashoffset:0;stroke-opacity:1" />
    <path
       style="opacity:1;vector-effect:none;fill:#c8beb7;fill-opacity:1;stroke:none;stroke-width:0.66606081;stroke-linecap:round;stroke-linejoin:round;stroke-miterlimit:4;stroke-dasharray:none;stroke-dashoffset:0;stroke-opacity:0"
       d="m 269.76367,393.2207 c -0.32188,0 -0.63993,0.0171 -0.95312,0.0488 -0.003,2.6e-4 -0.005,-2.6e-4 -0.008,0 -0.20168,0.0204 -0.39807,0.057 -0.5957,0.0899 -0.0912,0.0153 -0.18507,0.0231 -0.27539,0.041 -0.001,2.5e-4 -0.003,-2.5e-4 -0.004,0 -0.29456,0.058 -0.58339,0.13204 -0.86718,0.2168 -0.27737,0.0828 -0.54867,0.18004 -0.81446,0.28711 -0.008,0.003 -0.0158,0.005 -0.0234,0.008 -3.42977,1.39216 -5.83789,4.74614 -5.83789,8.6875 v 25.30273 c 0,3.94134 2.40812,7.29533 5.83789,8.6875 0.008,0.003 0.0158,0.005 0.0234,0.008 0.26579,0.10706 0.53709,0.20427 0.81446,0.28711 0.28379,0.0847 0.57262,0.15875 0.86718,0.21679 10e-4,2.5e-4 0.003,-2.4e-4 0.004,0 0.0903,0.0179 0.18415,0.0257 0.27539,0.041 0.19763,0.0328 0.39402,0.0695 0.5957,0.0898 0.003,2.7e-4 0.005,-2.6e-4 0.008,0 0.31319,0.0318 0.63124,0.0488 0.95312,0.0488 h 4.52149 6.09961 c 0.70168,0 1.38215,-0.0818 2.03906,-0.22656 v -37.81055 c 1.19119,-1.4072 2.49257,-2.71861 3.89258,-3.91797 -1.11145,-0.90627 -2.43953,-1.55401 -3.89258,-1.875 v -0.004 c -0.0212,-0.005 -0.0432,-0.007 -0.0645,-0.0117 -0.26183,-0.0559 -0.52729,-0.0992 -0.79688,-0.13282 -0.0691,-0.009 -0.13741,-0.0199 -0.20703,-0.0273 -0.31953,-0.0327 -0.64222,-0.0547 -0.9707,-0.0547 z m 246.9961,0 c -0.32852,0 -0.65115,0.022 -0.97071,0.0547 -0.069,0.007 -0.13655,0.0186 -0.20508,0.0273 -0.26594,0.0331 -0.52871,0.0761 -0.7871,0.13086 -0.0257,0.005 -0.0525,0.008 -0.0781,0.0137 v 0.004 c -1.45367,0.32132 -2.78087,0.96994 -3.89258,1.87695 1.40058,1.19994 2.70096,2.51203 3.89258,3.91993 v 37.80664 c 0.65691,0.14473 1.33933,0.22656 2.04102,0.22656 h 6.09765 4.52344 c 0.32205,0 0.63994,-0.0171 0.95312,-0.0488 0.003,-2.6e-4 0.005,2.7e-4 0.008,0 0.2949,-0.0298 0.58506,-0.0746 0.87109,-0.13086 10e-4,-2.5e-4 0.003,2.5e-4 0.004,0 0.29456,-0.058 0.58339,-0.13204 0.86718,-0.21679 0.27737,-0.0828 0.54867,-0.18005 0.81446,-0.28711 0.008,-0.003 0.0158,-0.005 0.0234,-0.008 3.42977,-1.39217 5.83789,-4.74616 5.83789,-8.6875 v -25.30273 c 0,-3.94136 -2.40812,-7.29534 -5.83789,-8.6875 -0.008,-0.003 -0.0158,-0.005 -0.0234,-0.008 -0.26579,-0.10707 -0.53709,-0.20427 -0.81446,-0.28711 -0.28379,-0.0848 -0.57262,-0.15876 -0.86718,-0.2168 -10e-4,-2.5e-4 -0.003,2.5e-4 -0.004,0 -0.28567,-0.0567 -0.57646,-0.10076 -0.87109,-0.13086 -0.003,-2.6e-4 -0.005,2.6e-4 -0.008,0 -0.31318,-0.0317 -0.63107,-0.0488 -0.95312,-0.0488 z"
       transform="scale(0.26458333)"
       id="rect1090"
       inkscape:connector-curvature="0" />
    <path
       id="path995"
       style="opacity:0.75;vector-effect:none;fill:none;fill-opacity:1;stroke:#211209;stroke-width:1.9091562;stroke-linecap:round;stroke-linejoin:round;stroke-miterlimit:4;stroke-dasharray:none;stroke-dashoffset:0;stroke-opacity:1"
       d="m 126.68723,188.76385 c 3.26851,0.067 5.97829,-2.37527 7.49895,-5.0803 1.73271,-3.08222 4.4387,-12.35975 4.78749,-17.97535 0.69758,-11.2312 -0.35743,-49.02043 -0.35743,-49.02043 2.44489,-0.29578 3.36054,-1.82237 3.36054,-3.71892 v -2.75936"
       inkscape:connector-curvature="0"
       sodipodi:nodetypes="csscsc" />
    <g
       id="g2208"
       inkscape:label="eyes">
      <g
         inkscape:label="left eye"
         id="g2190">
        <circle
           style="opacity:1;vector-effect:none;fill:#0a962b;fill-opacity:1;stroke:none;stroke-width:0.26499999;stroke-linecap:round;stroke-linejoin:round;stroke-miterlimit:4;stroke-dasharray:none;stroke-dashoffset:0;stroke-opacity:0"
           id="path819"
           cx="87.414658"
           cy="126.19409"
           r="5.8799295" />
        <circle
           r="2.855639"
           cy="126.1941"
           cx="87.414658"
           id="circle2185"
           style="opacity:1;vector-effect:none;fill:#000000;fill-opacity:1;stroke:none;stroke-width:0.12869956;stroke-linecap:round;stroke-linejoin:round;stroke-miterlimit:4;stroke-dasharray:none;stroke-dashoffset:0;stroke-opacity:0" />
        <circle
           r="1.737252"
           cy="123.9223"
           cx="85.410133"
           id="circle829"
           style="opacity:1;vector-effect:none;fill:#ffffff;fill-opacity:1;stroke:none;stroke-width:0.07829545;stroke-linecap:round;stroke-linejoin:round;stroke-miterlimit:4;stroke-dasharray:none;stroke-dashoffset:0;stroke-opacity:0" />
      </g>
      <g
         inkscape:label="right eye"
         transform="translate(36.081388)"
         id="g2198">
        <circle
           r="5.8799295"
           cy="126.19409"
           cx="87.414658"
           id="circle2192"
           style="opacity:1;vector-effect:none;fill:#0a962b;fill-opacity:1;stroke:none;stroke-width:0.26499999;stroke-linecap:round;stroke-linejoin:round;stroke-miterlimit:4;stroke-dasharray:none;stroke-dashoffset:0;stroke-opacity:0" />
        <circle
           style="opacity:1;vector-effect:none;fill:#000000;fill-opacity:1;stroke:none;stroke-width:0.12869956;stroke-linecap:round;stroke-linejoin:round;stroke-miterlimit:4;stroke-dasharray:none;stroke-dashoffset:0;stroke-opacity:0"
           id="circle2194"
           cx="87.414658"
           cy="126.1941"
           r="2.855639" />
        <circle
           style="opacity:1;vector-effect:none;fill:#ffffff;fill-opacity:1;stroke:none;stroke-width:0.07829545;stroke-linecap:round;stroke-linejoin:round;stroke-miterlimit:4;stroke-dasharray:none;stroke-dashoffset:0;stroke-opacity:0"
           id="circle2196"
           cx="85.410133"
           cy="123.9223"
           r="1.737252" />
      </g>
    </g>
    <rect
       inkscape:label="nose"
       style="opacity:1;vector-effect:none;fill:#ff9955;fill-opacity:1;stroke:none;stroke-width:0.26861203;stroke-linecap:round;stroke-linejoin:round;stroke-miterlimit:4;stroke-dasharray:none;stroke-dashoffset:0;stroke-opacity:0"
       id="rect2220"
       width="21.973583"
       height="12.721958"
       x="94.468559"
       y="134.23622"
       ry="2.3648345" />
    <rect
       inkscape:label="nose"
       style="opacity:1;vector-effect:none;fill:#f3c490;fill-opacity:1;stroke:none;stroke-width:0.22990789;stroke-linecap:round;stroke-linejoin:round;stroke-miterlimit:4;stroke-dasharray:none;stroke-dashoffset:0;stroke-opacity:0"
       id="rect2222"
       width="9.3399792"
       height="21.926321"
       x="96.845871"
       y="120.31416"
       ry="4.0757971" />
    <rect
       inkscape:label="nose"
       style="opacity:1;vector-effect:none;fill:#f3c490;fill-opacity:1;stroke:none;stroke-width:0.14015554;stroke-linecap:round;stroke-linejoin:round;stroke-miterlimit:4;stroke-dasharray:none;stroke-dashoffset:0;stroke-opacity:0"
       id="rect2222-9"
       width="7.8383131"
       height="9.7096119"
       x="93.087906"
       y="134.23622"
       ry="1.8048815" />
    <rect
       ry="1.1212451"
       y="136.73775"
       x="94.531105"
       height="6.0318947"
       width="4.6679215"
       id="rect2239"
       style="opacity:1;vector-effect:none;fill:#f7d9b8;fill-opacity:1;stroke:none;stroke-width:0.08524849;stroke-linecap:round;stroke-linejoin:round;stroke-miterlimit:4;stroke-dasharray:none;stroke-dashoffset:0;stroke-opacity:0"
       inkscape:label="nose" />
    <rect
       ry="3.4769602"
       y="121.76057"
       x="101.3157"
       height="18.704794"
       width="3.3018768"
       id="rect2241"
       style="opacity:1;vector-effect:none;fill:#f7d9b8;fill-opacity:1;stroke:none;stroke-width:0.12625684;stroke-linecap:round;stroke-linejoin:round;stroke-miterlimit:4;stroke-dasharray:none;stroke-dashoffset:0;stroke-opacity:0"
       inkscape:label="nose" />
    <g
       id="g2274"
       transform="translate(-0.05667782)">
      <rect
         inkscape:label="nose"
         style="opacity:1;vector-effect:none;fill:#f7d9b8;fill-opacity:1;stroke:none;stroke-width:0.19905454;stroke-linecap:round;stroke-linejoin:round;stroke-miterlimit:4;stroke-dasharray:none;stroke-dashoffset:0;stroke-opacity:0"
         id="rect2239-4"
         width="13.221907"
         height="11.61058"
         x="120.19306"
         y="136.73773"
         ry="2.1582451" />
      <rect
         ry="2.1582451"
         y="136.73773"
         x="77.609093"
         height="11.61058"
         width="13.221907"
         id="rect2270"
         style="opacity:1;vector-effect:none;fill:#f7d9b8;fill-opacity:1;stroke:none;stroke-width:0.19905454;stroke-linecap:round;stroke-linejoin:round;stroke-miterlimit:4;stroke-dasharray:none;stroke-dashoffset:0;stroke-opacity:0"
         inkscape:label="nose" />
    </g>
    <path
       style="opacity:1;vector-effect:none;fill:none;fill-opacity:1;stroke:#f7d9b8;stroke-width:1.454;stroke-linecap:round;stroke-linejoin:round;stroke-miterlimit:4;stroke-dasharray:none;stroke-dashoffset:0;stroke-opacity:1"
       d="m 62.964081,128.65654 c 0,0 0.818899,-2.3232 1.77851,-3.41165 0.959611,-1.08845 1.694414,-1.93116 3.252606,-2.77099"
       id="path2282"
       inkscape:connector-curvature="0"
       sodipodi:nodetypes="czc" />
    <rect
       inkscape:label="nose"
       style="opacity:1;vector-effect:none;fill:#f7d9b8;fill-opacity:1;stroke:none;stroke-width:0.13895097;stroke-linecap:round;stroke-linejoin:round;stroke-miterlimit:4;stroke-dasharray:none;stroke-dashoffset:0;stroke-opacity:0"
       id="rect2284"
       width="4.6679206"
       height="16.025202"
       x="75.980934"
       y="142.44789"
       ry="2.9788618" />
    <path
       style="opacity:1;vector-effect:none;fill:none;fill-opacity:1;stroke:#a05a2c;stroke-width:1.0914762;stroke-linecap:round;stroke-linejoin:round;stroke-miterlimit:4;stroke-dasharray:none;stroke-dashoffset:0;stroke-opacity:1"
       d="m 87.019412,179.63043 c -1.031197,0 -1.861237,1.02853 -1.861237,2.30633 v 1.85912"
       id="path2286"
       inkscape:connector-curvature="0"
       sodipodi:nodetypes="csc" />
    <path
       style="opacity:1;vector-effect:none;fill:none;fill-opacity:1;stroke:#2d180d;stroke-width:1.0914762;stroke-linecap:round;stroke-linejoin:round;stroke-miterlimit:4;stroke-dasharray:none;stroke-dashoffset:0;stroke-opacity:1"
       d="m 111.93633,181.95646 c 0,1.0312 -1.02853,1.86124 -2.30633,1.86124 h -1.85912"
       id="path2288"
       inkscape:connector-curvature="0"
       sodipodi:nodetypes="csc" />
  </g>
</svg>
